<svg width="97" height="55" viewBox="0 0 97 55" fill="none" xmlns="http://www.w3.org/2000/svg">
<path d="M46.255 43.2628C54.6217 43.2628 61.764 38.7394 61.764 30.5768V30.4747C61.764 24.5228 58.0908 21.2238 52.411 19.7273L60.8797 13.3673V4.62646H31.8344V14.4556H45.8809L37.5482 21.0537L39.2148 26.6655H44.5545C47.9216 26.6655 49.5201 27.8559 49.5201 29.6925V29.7945C49.5201 31.5631 48.0236 32.8215 45.2007 32.8215C42.0717 32.8215 39.0787 31.359 36.2898 28.7062L28.7734 36.4266C32.9568 40.712 38.5006 43.2628 46.255 43.2628Z" fill="#215B4A"/>
<path d="M72.7497 22.6182V15.2038H78.2595C81.1844 15.2038 83.055 16.3942 83.055 18.809V18.911C83.055 21.2238 81.2184 22.5842 78.1914 22.5842H72.7497V22.6182ZM60.0977 42.4466H72.7497V31.6311H75.4366L82.5789 42.4466H96.9995L88.2247 29.5905C92.8161 27.3797 95.673 23.5365 95.673 18.0268V17.9247C95.673 14.0475 94.4827 11.2246 92.2039 8.94585C89.5511 6.293 85.2997 4.62646 78.5996 4.62646H60.1317V42.4466H60.0977Z" fill="#215B4A"/>
<path d="M89.687 54.2823H90.9794V48.9766L93.2921 52.4797H93.3261L95.6729 48.9766V54.3163H96.9653V46.8679H95.5708L93.2921 50.4051L91.0134 46.8679H89.6189V54.2823H89.687ZM84.8914 54.4183C86.8301 54.4183 88.0885 53.296 88.0885 51.0853V46.8679H86.796V51.1533C86.796 52.5137 86.0818 53.228 84.9254 53.228C83.7691 53.228 83.0548 52.4797 83.0548 51.1193V46.9019H81.7624V51.1873C81.7284 53.296 82.9528 54.4183 84.8914 54.4183ZM74.9262 54.2823H80.504V53.1259H76.2527V51.1193H79.9939V49.9629H76.2527V48.0243H80.47V46.8679H74.9602V54.2823H74.9262ZM68.5322 54.2823H73.7699V53.0919H69.8586V46.8339H68.5662V54.2823H68.5322ZM63.2945 53.228C61.8321 53.228 60.7777 52.0376 60.7777 50.5751V50.5411C60.7777 49.0786 61.798 47.9223 63.2945 47.9223C64.757 47.9223 65.8113 49.1126 65.8113 50.5751V50.6091C65.8113 52.0376 64.757 53.228 63.2945 53.228ZM63.2605 54.4183C65.5392 54.4183 67.1718 52.6498 67.1718 50.5751V50.5411C67.1718 48.4324 65.5732 46.6979 63.2945 46.6979C61.0158 46.6979 59.3833 48.4664 59.3833 50.5411V50.5751C59.3833 52.6838 60.9818 54.4183 63.2605 54.4183ZM53.5334 50.5411V48.0583H55.438C56.3903 48.0583 56.9685 48.5004 56.9685 49.2827V49.3167C56.9685 50.065 56.3563 50.5751 55.438 50.5751H53.5334V50.5411ZM52.241 54.2823H53.5334V51.6975H55.1659L57.0025 54.2823H58.567L56.5604 51.4594C57.5807 51.1533 58.3289 50.4391 58.3289 49.2147V49.1807C58.3289 48.5345 58.0909 47.9903 57.7167 47.5822C57.2406 47.106 56.4923 46.8339 55.574 46.8339H52.241V54.2823ZM47.3774 54.2823H48.7038V48.0583H51.0506V46.8339H44.9967V48.0583H47.3434V54.2823H47.3774ZM38.6366 54.2823H44.2144V53.1259H39.9631V51.1193H43.7043V49.9629H39.9631V48.0243H44.1804V46.8679H38.6706V54.2823H38.6366ZM33.0588 50.7112V48.0243H34.5893C35.5756 48.0243 36.1878 48.4664 36.1878 49.3507V49.3847C36.1878 50.167 35.5756 50.7112 34.5893 50.7112H33.0588ZM31.7324 54.2823H33.0248V51.9015H34.4873C36.1198 51.9015 37.4803 51.0173 37.4803 49.3507V49.3167C37.4803 47.8202 36.3919 46.8339 34.6574 46.8339H31.7324V54.2823Z" fill="#215B4A"/>
<path d="M17.5843 33.1615C19.9311 29.7944 23.7063 31.3589 24.5906 35.5763C25.849 41.6302 31.9029 42.4465 31.9029 42.4465C31.9029 42.4465 27.5155 46.4598 21.0194 43.3648C16.7681 41.3241 15.9858 35.4402 17.5843 33.1615Z" fill="#068CA0"/>
<path d="M26.9377 11.3606C24.591 14.7277 20.8158 13.1632 19.9315 8.94581C18.6731 2.89187 12.6191 2.07561 12.6191 2.07561C12.6191 2.07561 17.0065 -1.90366 23.5026 1.15731C27.754 3.19797 28.5362 9.08185 26.9377 11.3606Z" fill="#A1D64A"/>
<path d="M17.8575 11.2586C18.5718 15.3059 14.7966 16.8704 11.1914 14.4896C6.02176 11.1226 1.1582 14.8297 1.1582 14.8297C1.1582 14.8297 1.4643 8.87784 8.23247 6.46307C12.6879 4.89857 17.3814 8.50372 17.8575 11.2586Z" fill="#A1D64A"/>
<path d="M11.3606 17.5846C14.7277 19.9313 13.1632 23.7065 8.94581 24.5908C2.89187 25.8492 2.07561 31.9031 2.07561 31.9031C2.07561 31.9031 -1.90366 27.5157 1.15731 21.0197C3.19797 16.7683 9.08185 15.986 11.3606 17.5846Z" fill="#4CC084"/>
<path d="M11.2589 26.6314C15.3062 25.9172 16.8707 29.6924 14.4899 33.2976C11.1228 38.4672 14.83 43.3308 14.83 43.3308C14.83 43.3308 8.87811 43.0587 6.49734 36.2905C4.89883 31.8351 8.50399 27.1416 11.2589 26.6314Z" fill="#068CA0"/>
</svg>
