<svg width="250" height="28" viewBox="0 0 250 28" fill="none" xmlns="http://www.w3.org/2000/svg">
<path d="M161.149 2.15692C158.458 0.758915 155.446 0 152.635 0C147.214 0 143.52 3.59487 143.52 8.94722C143.52 10.9843 144.042 12.5421 145.046 13.7004C146.09 14.8188 147.294 15.378 150.748 16.4165C153.96 17.3352 154.924 18.0143 154.924 19.4522C154.924 21.0499 153.599 22.0884 151.551 22.0884C149.503 22.0884 147.576 21.2097 145.447 19.3723L142.476 24.9244C143.72 25.8031 144.242 26.1227 145.688 26.6819C147.897 27.5606 149.664 27.9201 151.792 27.9201C156.089 27.9201 159.743 26.1626 161.189 23.2867C161.751 22.2083 162.193 19.9315 162.193 18.3738C162.193 16.4165 161.671 14.9786 160.506 13.7004C159.382 12.5021 158.097 11.7832 155.607 11.0642C151.39 9.78602 150.788 9.42653 150.788 8.02853C150.788 6.75036 152.113 5.75178 153.8 5.75178C155.366 5.75178 156.812 6.31098 158.338 7.54922L161.149 2.15692Z" fill="#DD1D21"/>
<path d="M173.569 10.9044V0.639088H166.622V27.2411H173.569V16.2967H183.608V27.2411H190.555V0.639088H183.608V10.9044H173.569Z" fill="#DD1D21"/>
<path d="M211.41 6.47076V0.639088H196.19V27.2411H211.45V21.3695H203.178V16.776H210.968V10.9044H203.137V6.47076H211.41Z" fill="#DD1D21"/>
<path d="M222.785 0.639088H215.837V27.2411H231.137V21.4094H222.785V0.639088Z" fill="#DD1D21"/>
<path d="M241.647 0.639088H234.7V27.2411H250V21.4094H241.647V0.639088Z" fill="#DD1D21"/>
<path d="M5.18025 12.9815V4.95292H7.26842C10.6015 4.95292 12.288 6.27104 12.288 8.90728C12.288 11.6234 10.6015 12.9815 7.30858 12.9815H5.18025ZM5.18025 17.2953H8.55344C14.2557 17.2953 17.5888 14.2197 17.5888 8.94722C17.5888 6.35093 16.625 4.11412 14.8581 2.59629C13.1715 1.15834 11.2841 0.639088 7.79046 0.639088H0V27.2411H5.18025V17.2953Z" fill="#E98624"/>
<path d="M26.6705 12.8616V4.8331H28.2768C31.6098 4.8331 33.4571 6.27104 33.4571 8.82739C33.4571 11.4237 31.5295 12.8616 28.1965 12.8616H26.6705ZM32.6138 16.0171C34.0996 15.7375 34.6618 15.4979 35.5452 14.8987C37.5129 13.6205 38.6775 11.224 38.6775 8.58773C38.6775 6.2311 37.6736 3.95435 35.987 2.55635C34.4208 1.27817 32.2122 0.639088 29.2406 0.639088H21.4903V27.2411H26.7107V16.5364H27.3532L34.5815 27.2411H41.0066L32.6138 16.0171Z" fill="#E98624"/>
<path d="M48.6844 14.02C48.6443 9.06705 52.7001 5.07275 57.5993 5.07275C62.5787 5.07275 66.5944 9.06705 66.5944 13.98C66.5944 18.933 62.5787 22.9272 57.6394 22.9272C52.7001 22.9272 48.6844 18.933 48.6844 14.02ZM43.2231 14.0599C43.2231 21.9287 49.4876 28 57.5993 28C65.711 28 72.0558 21.8887 72.0558 14.02C72.0558 6.15121 65.711 0 57.6796 0C49.5679 0 43.2231 6.15121 43.2231 14.0599Z" fill="#E98624"/>
<path d="M75.4174 27.2411H80.6378L83.3685 10.8645L90.4762 27.5606H91.8818L99.2706 10.8645L101.68 27.2411H106.9L102.443 0.11983H98.8691L91.2392 17.5749L83.9708 0.11983H80.3969L75.4174 27.2411Z" fill="#E98624"/>
<path d="M115.783 14.02C115.743 9.06705 119.798 5.07275 124.698 5.07275C129.677 5.07275 133.693 9.06705 133.693 13.98C133.693 18.933 129.677 22.9272 124.738 22.9272C119.798 22.9272 115.783 18.933 115.783 14.02ZM110.321 14.0599C110.321 21.9287 116.586 28 124.698 28C132.809 28 139.154 21.8887 139.154 14.02C139.154 6.15121 132.809 0 124.778 0C116.666 0 110.321 6.15121 110.321 14.0599Z" fill="#E98624"/>
</svg>
