<svg width="50" height="37" viewBox="0 0 50 37" fill="none" xmlns="http://www.w3.org/2000/svg">
<path d="M19.0517 30.0806H17.6379L15.5422 32.6025V30.0806H14.379V35.9042H15.5422V33.1899L17.6379 35.9042H19.1419L16.7154 32.7949L19.0517 30.0806Z" fill="black"/>
<path d="M10.4985 23.953V13.2881L0 23.953H10.4985Z" fill="#009039"/>
<path d="M20.9368 29.6348H19.8739V35.9041H20.9368V29.6348Z" fill="black"/>
<path d="M25.6596 33.8784V33.3416C25.6596 32.0553 25.1281 31.5186 23.8146 31.5186C23.3333 31.5186 22.7517 31.6198 22.3606 31.8629V32.8048C22.7517 32.5111 23.233 32.3592 23.7243 32.3592H23.8246C24.4062 32.3592 24.6569 32.6023 24.6569 33.2505L23.8246 33.3011C23.3934 33.3011 22.9522 33.3517 22.6113 33.4935C22.2203 33.7467 21.8793 34.0911 21.8793 34.7292C21.8793 35.5698 22.6113 36.0154 23.3934 36.0154C23.5338 36.0154 23.7344 36.0154 23.8246 35.9648C24.1655 35.8635 24.5065 35.6204 24.697 35.2761C24.697 35.428 24.697 35.7217 24.7371 35.9141H25.7097C25.7097 35.5698 25.6596 35.2761 25.6596 34.9722C25.6596 34.6279 25.6596 34.324 25.6596 33.8784ZM24.3861 34.8203C24.1956 35.0229 23.9449 35.114 23.8046 35.1647C23.7043 35.2153 23.6642 35.2153 23.604 35.2153C23.2129 35.2153 22.9222 35.0229 22.9222 34.6684C22.9222 34.1721 23.3132 33.9797 23.7945 33.929C23.7945 33.929 24.0352 33.929 24.1355 33.929H24.6168C24.6368 34.2734 24.5867 34.5772 24.3861 34.8203Z" fill="black"/>
<path d="M29.149 31.5083C29.0086 31.5083 28.8081 31.559 28.8081 31.559C28.417 31.6096 28.1263 31.8527 27.8856 32.1464H27.8355V29.6245H26.7726V35.8938H27.8355V35.3975C28.0761 35.6912 28.417 35.8938 28.8081 35.985C28.8081 35.985 29.0086 35.985 29.149 35.985C30.4626 35.985 30.8938 34.9012 30.8938 33.7163C30.9038 32.5515 30.4626 31.5083 29.149 31.5083ZM28.8582 35.1646H28.8081C28.0861 35.1139 27.8856 34.3746 27.8856 33.7365C27.8856 33.139 28.1263 32.4502 28.8081 32.3996H28.8582C29.5802 32.3996 29.7807 33.1896 29.7807 33.7365C29.7807 34.3239 29.5401 35.1646 28.8582 35.1646Z" fill="black"/>
<path d="M32.9493 29.7363H31.8263V30.82H32.9493V29.7363Z" fill="black"/>
<path d="M42.6657 0H39.4069H36.6394H28.8082H23.8046H23.5138L14.379 9.32797V23.9529H20.6962L14.8202 17.9774L20.6962 12.0018H23.8046H26.1409L23.8046 14.3718L20.265 17.9774L23.8046 21.5323L26.1409 23.9529L28.8082 21.2386L36.6394 13.2881L39.4069 10.4724L42.6657 7.16056L48.5818 1.13435L49.7048 0H48.5818H42.6657Z" fill="#009039"/>
<path d="M32.9493 31.6099H31.8263V35.9042H32.9493V31.6099Z" fill="black"/>
<path d="M36.6393 31.5088C36.5892 31.5088 36.5391 31.5088 36.4889 31.5088C35.9074 31.5088 35.416 31.7012 35.0751 32.1975V31.6101H34.0022V35.9044H35.1152V33.7775C35.1152 33.2306 35.2656 32.3899 36.0879 32.3899C36.3285 32.3899 36.529 32.4406 36.6193 32.5824C36.8098 32.8254 36.8098 33.2711 36.8098 33.6154V35.8841H37.9228V33.1698C37.9529 32.2481 37.5117 31.5594 36.6393 31.5088Z" fill="black"/>
</svg>
